<svg xmlns="http://www.w3.org/2000/svg" viewBox="0 0 1200 900">
  <defs>
    <filter id="softShadow" x="-50%" y="-50%" width="200%" height="200%">
      <feDropShadow dx="0" dy="22" stdDeviation="24" flood-color="#000" flood-opacity="0.35"/>
    </filter>
    <linearGradient id="cloth" x1="0" y1="0" x2="0" y2="1">
      <stop offset="0" stop-color="#ffffff"/>
      <stop offset="1" stop-color="#f2f6fb"/>
    </linearGradient>
  </defs>
  <rect width="1200" height="900" fill="transparent"/>
  <g filter="url(#softShadow)" transform="translate(0, -6)">
    <!-- hoodie body -->
    <rect x="340" y="300" width="520" height="360" rx="48" fill="url(#cloth)" stroke="#e1e7ee" stroke-width="6"/>
    <!-- hood -->
    <path d="M450 300 q150 -120 300 0 v60 q-150 60 -300 0z" fill="#ffffff" stroke="#e1e7ee" stroke-width="6"/>
    <!-- sleeves folded inward -->
    <path d="M340 360 l-110 90 q-18 15 -18 32 v28 q0 14 12 20 l116 70 z" fill="#ffffff" stroke="#e1e7ee" stroke-width="6"/>
    <path d="M860 360 l110 90 q18 15 18 32 v28 q0 14 -12 20 l-116 70 z" fill="#ffffff" stroke="#e1e7ee" stroke-width="6"/>
    <!-- pocket -->
    <rect x="510" y="540" width="180" height="70" rx="16" fill="#f7f9fc" stroke="#dbe3ea" stroke-width="4"/>
    <!-- drawstrings -->
    <path d="M565 360 v70" stroke="#d0d8e0" stroke-width="5" stroke-linecap="round"/>
    <path d="M635 360 v70" stroke="#d0d8e0" stroke-width="5" stroke-linecap="round"/>
  </g>
</svg>


