<svg xmlns="http://www.w3.org/2000/svg" viewBox="0 0 1200 900">
  <defs>
    <filter id="softShadow" x="-50%" y="-50%" width="200%" height="200%">
      <feDropShadow dx="0" dy="22" stdDeviation="24" flood-color="#000" flood-opacity="0.35"/>
    </filter>
    <linearGradient id="shine" x1="0" y1="0" x2="0" y2="1">
      <stop offset="0" stop-color="#ffffff" stop-opacity="1"/>
      <stop offset="1" stop-color="#f3f6f9" stop-opacity="1"/>
    </linearGradient>
  </defs>
  <rect width="1200" height="900" fill="transparent"/>
  <g filter="url(#softShadow)" transform="translate(0, -10)">
    <!-- body -->
    <rect x="360" y="280" width="480" height="360" rx="44" fill="url(#shine)" stroke="#e1e7ee" stroke-width="6"/>
    <!-- collar -->
    <path d="M540 300 q60 20 120 0 v28 q-60 24 -120 0z" fill="#eef2f6"/>
    <!-- long sleeves -->
    <path d="M360 300 l-160 160 q-18 18 -18 36 v58 q0 16 12 22 l166 72 z" fill="#ffffff" stroke="#e1e7ee" stroke-width="6"/>
    <path d="M840 300 l160 160 q18 18 18 36 v58 q0 16 -12 22 l-166 72 z" fill="#ffffff" stroke="#e1e7ee" stroke-width="6"/>
    <!-- fold lines -->
    <path d="M360 470 h480" stroke="#d8e0e8" stroke-width="4" opacity="0.55"/>
    <path d="M360 570 h480" stroke="#d8e0e8" stroke-width="3" opacity="0.45"/>
  </g>
</svg>


